# xmcd
#
# Track frame offsets:
#	150
#	19175
#	36027
#	54660
#	69630
#	86085
#	102757
#	118607
#	131877
#	146312
#	164470
#	185502
#
# Disc length: 2665 seconds
#
# Revision: 0
# Processed by: cddbd v1.4PL0 Copyright (c) Steve Scherf et al.
# Submitted via: dBpowerAMP V4.0
#
DISCID=a70a670c
DTITLE=Barry Saunders - One Red Morning
DYEAR=2002
DGENRE=Country
TTITLE0=One Red Morning
TTITLE1=All Those Things
TTITLE2=Rescue Me
TTITLE3=Bay Of Blue
TTITLE4=Circle Man
TTITLE5=Wind In The Pines
TTITLE6=Amsterdam
TTITLE7=The Stumbling Man
TTITLE8=Diamond Joe
TTITLE9=Hands Of Fire
TTITLE10=Time Go Still
TTITLE11=Unreal World
EXTD=
EXTT0=
EXTT1=
EXTT2=
EXTT3=
EXTT4=
EXTT5=
EXTT6=
EXTT7=
EXTT8=
EXTT9=
EXTT10=
EXTT11=
PLAYORDER=
